<svg width="500" height="500" viewBox="0 0 500 500" fill="none" xmlns="http://www.w3.org/2000/svg">
<path d="M140.625 312.5H359.375C375.772 312.5 391.754 307.341 405.055 297.753C418.357 288.166 428.306 274.636 433.491 259.08C438.676 243.525 438.835 226.732 433.946 211.081C429.057 195.429 419.368 181.713 406.25 171.875C397.024 164.896 386.342 160.089 375 157.813C369.862 156.736 364.624 156.212 359.375 156.25V125C359.375 108.424 352.79 92.5268 341.069 80.8058C329.348 69.0848 313.451 62.5 296.875 62.5H203.125C186.549 62.5 170.652 69.0848 158.931 80.8058C147.21 92.5268 140.625 108.424 140.625 125V156.25C135.376 156.212 130.138 156.736 125 157.813C113.658 160.089 102.976 164.896 93.75 171.875C80.6323 181.713 70.9427 195.429 66.0536 211.081C61.1646 226.732 61.3239 243.525 66.5091 259.08C71.6943 274.636 81.6425 288.166 94.9445 297.753C108.247 307.341 124.228 312.5 140.625 312.5ZM171.875 125C171.875 116.712 175.167 108.763 181.028 102.903C186.888 97.0424 194.837 93.75 203.125 93.75H296.875C305.163 93.75 313.112 97.0424 318.972 102.903C324.833 108.763 328.125 116.712 328.125 125V156.25H171.875V125Z" fill="white"/>
<path d="M140.625 343.75C126.064 343.732 111.653 340.806 98.2375 335.145C84.822 329.483 72.672 321.2 62.5 310.781V359.375C62.5 380.095 70.731 399.966 85.3823 414.618C100.034 429.269 119.905 437.5 140.625 437.5H359.375C380.095 437.5 399.966 429.269 414.618 414.618C429.269 399.966 437.5 380.095 437.5 359.375V310.781C427.328 321.2 415.178 329.483 401.763 335.145C388.347 340.806 373.936 343.732 359.375 343.75H140.625Z" fill="white"/>
</svg>
