<svg width="500" height="500" viewBox="0 0 500 500" fill="none" xmlns="http://www.w3.org/2000/svg">
<path d="M267.292 280.208C265.386 277.372 262.812 275.049 259.797 273.442C256.781 271.835 253.417 270.995 250 270.995C246.584 270.995 243.219 271.835 240.204 273.442C237.188 275.049 234.614 277.372 232.709 280.208L149.375 405.208C147.547 408.375 146.584 411.968 146.584 415.625C146.584 419.282 147.547 422.875 149.375 426.042C151.006 429.296 153.46 432.066 156.494 434.076C159.527 436.086 163.035 437.267 166.667 437.5H333.334C337.103 437.49 340.798 436.458 344.027 434.513C347.255 432.569 349.896 429.785 351.667 426.458C353.34 423.201 354.124 419.559 353.941 415.902C353.758 412.244 352.615 408.7 350.625 405.625L267.292 280.208ZM205.625 395.833L250 329.167L294.375 395.833H205.625ZM395.834 62.5H104.167C87.591 62.5 71.6938 69.0848 59.9728 80.8058C48.2518 92.5269 41.667 108.424 41.667 125V312.5C41.667 329.076 48.2518 344.973 59.9728 356.694C71.6938 368.415 87.591 375 104.167 375H121.875C127.401 375 132.7 372.805 136.607 368.898C140.514 364.991 142.709 359.692 142.709 354.167C142.709 348.641 140.514 343.342 136.607 339.435C132.7 335.528 127.401 333.333 121.875 333.333H104.167C98.6417 333.333 93.3426 331.138 89.4356 327.231C85.5286 323.324 83.3337 318.025 83.3337 312.5V125C83.3337 119.475 85.5286 114.176 89.4356 110.269C93.3426 106.362 98.6417 104.167 104.167 104.167H395.834C401.359 104.167 406.658 106.362 410.565 110.269C414.472 114.176 416.667 119.475 416.667 125V312.5C416.667 318.025 414.472 323.324 410.565 327.231C406.658 331.138 401.359 333.333 395.834 333.333H378.125C372.6 333.333 367.301 335.528 363.394 339.435C359.487 343.342 357.292 348.641 357.292 354.167C357.292 359.692 359.487 364.991 363.394 368.898C367.301 372.805 372.6 375 378.125 375H395.834C412.41 375 428.307 368.415 440.028 356.694C451.749 344.973 458.334 329.076 458.334 312.5V125C458.334 108.424 451.749 92.5269 440.028 80.8058C428.307 69.0848 412.41 62.5 395.834 62.5Z" fill="white"/>
</svg>
