<svg width="500" height="500" viewBox="0 0 500 500" fill="none" xmlns="http://www.w3.org/2000/svg">
<path d="M307.083 174.167H108.958C95.0341 174.167 81.6806 179.698 71.8349 189.544C61.9892 199.39 56.458 212.743 56.458 226.667V238.542C56.458 239.647 56.897 240.707 57.6784 241.488C58.4598 242.27 59.5196 242.709 60.6247 242.709H355.208C356.313 242.709 357.373 242.27 358.154 241.488C358.936 240.707 359.375 239.647 359.375 238.542V226.459C359.375 212.59 353.865 199.289 344.059 189.483C334.252 179.676 320.952 174.167 307.083 174.167Z" fill="white"/>
<path d="M355.208 273.958H60.6247C59.5196 273.958 58.4598 274.397 57.6784 275.178C56.897 275.96 56.458 277.02 56.458 278.125V357.708C56.458 371.577 61.9673 384.877 71.7739 394.684C81.5805 404.49 94.8811 410 108.75 410H306.875C320.799 410 334.152 404.468 343.998 394.623C353.843 384.777 359.375 371.424 359.375 357.5V278.125C359.375 277.02 358.936 275.96 358.154 275.178C357.373 274.397 356.313 273.958 355.208 273.958Z" fill="white"/>
<path d="M443.542 142.292V273.333C443.571 285.979 439.035 298.21 430.768 307.779C422.501 317.347 411.057 323.61 398.542 325.417C397.652 325.507 396.754 325.405 395.907 325.118C395.06 324.831 394.285 324.366 393.633 323.754C392.981 323.142 392.468 322.397 392.129 321.57C391.79 320.742 391.632 319.852 391.667 318.958V193.958C391.612 180.071 386.056 166.771 376.216 156.97C366.377 147.169 353.055 141.667 339.167 141.667H147.5C146.614 141.706 145.73 141.55 144.912 141.209C144.093 140.868 143.359 140.351 142.763 139.695C142.166 139.039 141.721 138.259 141.46 137.412C141.198 136.565 141.127 135.67 141.25 134.792C143.009 122.349 149.208 110.962 158.703 102.73C168.199 94.498 180.35 89.9769 192.917 90.0001H391.25C405.119 90.0001 418.419 95.5094 428.226 105.316C438.032 115.123 443.542 128.423 443.542 142.292Z" fill="white"/>
</svg>
