<svg width="500" height="500" viewBox="0 0 500 500" fill="none" xmlns="http://www.w3.org/2000/svg">
<path d="M222.292 168.333H234.375V218.75L215 204.166C213.452 203.046 212.191 201.574 211.322 199.872C210.453 198.17 210 196.286 210 194.375V180.625C210.054 177.381 211.366 174.286 213.659 171.992C215.953 169.699 219.048 168.387 222.292 168.333Z" fill="white"/>
<path d="M265.625 281.25L285 295.833C286.548 296.954 287.809 298.425 288.678 300.128C289.547 301.83 290 303.714 290 305.625V319.375C290 322.635 288.705 325.761 286.4 328.067C284.095 330.372 280.968 331.667 277.708 331.667H265.625V281.25Z" fill="white"/>
<path d="M354.167 62.5H145.833C123.732 62.5 102.536 71.2797 86.9078 86.9078C71.2797 102.536 62.5 123.732 62.5 145.833V354.167C62.5 376.268 71.2797 397.464 86.9078 413.092C102.536 428.72 123.732 437.5 145.833 437.5H354.167C376.268 437.5 397.464 428.72 413.092 413.092C428.72 397.464 437.5 376.268 437.5 354.167V145.833C437.5 123.732 428.72 102.536 413.092 86.9078C397.464 71.2797 376.268 62.5 354.167 62.5ZM321.25 208.333C321.25 212.477 319.604 216.452 316.674 219.382C313.743 222.312 309.769 223.958 305.625 223.958C301.481 223.958 297.507 222.312 294.576 219.382C291.646 216.452 290 212.477 290 208.333V180.625C289.946 177.382 288.634 174.286 286.341 171.993C284.047 169.699 280.952 168.387 277.708 168.333H265.625V242.292L303.75 270.833C309.156 274.887 313.549 280.138 316.585 286.175C319.621 292.211 321.218 298.868 321.25 305.625V319.375C321.195 330.906 316.59 341.949 308.436 350.103C300.283 358.257 289.239 362.862 277.708 362.917H265.625V375C265.625 379.144 263.979 383.118 261.049 386.049C258.118 388.979 254.144 390.625 250 390.625C245.856 390.625 241.882 388.979 238.951 386.049C236.021 383.118 234.375 379.144 234.375 375V362.917H222.292C210.761 362.862 199.717 358.257 191.564 350.103C183.41 341.949 178.805 330.906 178.75 319.375V291.667C178.75 287.523 180.396 283.548 183.326 280.618C186.257 277.688 190.231 276.042 194.375 276.042C198.519 276.042 202.493 277.688 205.424 280.618C208.354 283.548 210 287.523 210 291.667V319.375C210 322.635 211.295 325.761 213.6 328.067C215.905 330.372 219.032 331.667 222.292 331.667H234.375V257.917L196.25 229.167C190.844 225.113 186.451 219.862 183.415 213.825C180.379 207.789 178.782 201.132 178.75 194.375V180.625C178.805 169.094 183.41 158.051 191.564 149.897C199.717 141.743 210.761 137.138 222.292 137.083H234.375V125C234.375 120.856 236.021 116.882 238.951 113.951C241.882 111.021 245.856 109.375 250 109.375C254.144 109.375 258.118 111.021 261.049 113.951C263.979 116.882 265.625 120.856 265.625 125V137.083H277.708C289.239 137.138 300.283 141.743 308.436 149.897C316.59 158.051 321.195 169.094 321.25 180.625V208.333Z" fill="white"/>
</svg>
