<svg width="375" height="375" viewBox="0 0 375 375" fill="none" xmlns="http://www.w3.org/2000/svg">
<path fill-rule="evenodd" clip-rule="evenodd" d="M85.5575 0.10379C64.868 1.25613 45.7965 9.1349 30.1595 22.9896C26.9339 25.8474 22.8068 30.1903 20.0405 33.6375C7.93848 48.7182 1.16576 66.4762 0.111927 85.8895C-0.0377919 88.6464 -0.0370395 286.353 0.112572 289.092C1.26067 310.103 9.05197 329.077 23.0005 344.831C25.8566 348.056 30.1952 352.182 33.6449 354.953C48.7126 367.057 66.4711 373.834 85.88 374.888C88.636 375.038 286.278 375.037 289.016 374.887C310.021 373.739 328.989 365.945 344.737 351.992C345.569 351.255 347.266 349.634 348.508 348.39C360.805 336.077 369.227 320.591 372.892 303.553C373.857 299.066 374.569 293.699 374.747 289.567C374.786 288.651 374.86 287.876 374.909 287.845C374.959 287.814 375 242.601 375 187.371C375 132.14 374.959 86.9773 374.909 87.0082C374.859 87.0392 374.786 86.3284 374.747 85.4287C374.622 82.5205 374.205 78.7242 373.648 75.4172C370.801 58.5057 363.441 43.1893 351.896 30.1509C349.04 26.9251 344.701 22.7993 341.251 20.0283C326.184 7.92504 308.425 1.14786 289.016 0.0935758C286.6 -0.0376995 87.9184 -0.0277007 85.5575 0.10379ZM127.206 71.6617C116.532 72.173 109.179 73.8086 102.67 77.1192C94.8102 81.1173 89.3498 87.6707 86.2224 96.8598C84.7465 101.197 83.8177 106.279 83.1775 113.521C83.1003 114.395 83.031 121.616 82.9794 134.164C82.8996 153.606 82.8822 154.431 82.488 157.387C81.9001 161.796 80.5816 165.617 78.7974 168.082C76.7239 170.947 73.8327 172.735 69.4893 173.838C66.3172 174.643 64.0518 174.906 59.5744 174.987L56.2156 175.048V188.097V201.145L58.0696 201.146C67.6788 201.152 74.2327 203.043 77.7053 206.813C80.3274 209.659 81.8999 213.828 82.6039 219.799C82.9034 222.339 82.9723 226.616 82.9762 242.915C82.9785 252.21 83.0252 259.816 83.0866 260.869C83.8064 273.225 86.0992 281.597 90.6394 288.447C92.4013 291.105 95.2534 294.148 97.718 296C104.033 300.745 112.009 303.347 123.175 304.305C125.255 304.484 133.591 304.75 133.86 304.646L134.031 304.581V293.518V282.456L130.833 282.395C126.689 282.316 124.296 282.038 121.333 281.292C115.468 279.814 111.439 276.459 109.382 271.338C108.242 268.501 107.383 264.126 107.057 259.505C106.987 258.508 106.945 250.748 106.943 238.433C106.942 227.711 106.895 217.941 106.841 216.721C106.48 208.72 104.61 202.709 101.064 198.156C100.222 197.074 98.4894 195.318 97.3455 194.385C94.3176 191.917 90.1984 189.888 85.1814 188.392L84.214 188.103L84.4827 188.022C88.0411 186.947 89.9567 186.211 92.3596 184.998C95.2647 183.53 97.4509 181.948 99.4801 179.843C103.695 175.472 105.803 170.285 106.694 162.092L106.873 160.451L106.944 138.41L107.016 116.37L107.197 114.757C108.055 107.128 109.777 102.525 112.973 99.3223C116.674 95.6135 121.958 94.0055 131.203 93.7743L134.031 93.7036V82.6469V71.5901L130.941 71.6104C129.241 71.6216 127.561 71.6446 127.206 71.6617ZM242.693 82.6641V93.7381L244.117 93.7396C256.494 93.7523 263.245 96.6787 266.56 103.468C267.945 106.305 268.953 110.271 269.388 114.596C269.48 115.513 269.585 116.48 269.622 116.746C269.659 117.012 269.723 127.197 269.766 139.378L269.843 161.526L270.028 162.977C270.954 170.249 272.69 174.714 276.159 178.746C279.525 182.658 283.969 185.408 290.185 187.425C291.168 187.744 292.069 188.026 292.187 188.052L292.402 188.099L291.918 188.235C287.024 189.614 282.155 192.007 279.182 194.496C277.856 195.606 276.059 197.494 275.09 198.798C272.288 202.563 270.879 206.586 270.03 213.241L269.852 214.638L269.769 236.786C269.723 248.968 269.657 259.176 269.622 259.472C269.586 259.767 269.483 260.735 269.393 261.622C268.822 267.221 267.331 272.02 265.258 274.929C264.422 276.102 262.703 277.768 261.489 278.581C259.052 280.213 256.147 281.276 252.473 281.878C250.261 282.241 249.134 282.328 245.836 282.394L242.693 282.456V293.582V304.707L245.944 304.636C251.377 304.517 254.714 304.282 258.361 303.761C274.657 301.433 284.713 294.2 289.701 281.218C291.405 276.785 292.687 270.866 293.258 264.794C293.654 260.577 293.668 259.902 293.741 240.764L293.815 221.627L293.998 220.09C294.719 214.026 296.17 209.936 298.618 207.068C301.953 203.159 308.735 201.155 318.654 201.147L320.508 201.145V188.096V175.048L317.095 174.988C311.823 174.896 308.519 174.413 305.13 173.239C300.418 171.606 297.651 168.97 295.855 164.402C294.835 161.807 294.136 158.262 293.857 154.269C293.79 153.32 293.747 146.253 293.746 136.206C293.745 127.081 293.696 118.549 293.637 117.123C293.099 104.159 290.634 94.7242 285.952 87.7173C280.238 79.1649 271.253 74.2432 258.009 72.4095C254.144 71.8745 249.738 71.5901 245.31 71.5901H242.693V82.6641ZM0.0573275 187.491C0.0573275 242.751 0.0694727 265.357 0.0844124 237.727C0.099352 210.097 0.099352 164.884 0.0844124 137.255C0.0694727 109.625 0.0573275 132.231 0.0573275 187.491ZM141.931 220.289C138.951 220.535 136.554 221.72 134.291 224.067C131.927 226.519 130.881 229.101 130.881 232.486C130.881 235.132 131.464 237.083 132.905 239.259C133.524 240.194 134.995 241.719 136.019 242.486C139.431 245.042 144.43 245.477 148.389 243.561C150.923 242.335 153.246 239.873 154.408 237.184C155.825 233.907 155.647 229.831 153.952 226.734C153.155 225.278 151.627 223.559 150.153 222.461C147.934 220.808 145.009 220.036 141.931 220.289ZM187.118 220.294C183.711 220.565 180.615 222.332 178.404 225.267C176.808 227.386 176.055 229.699 176.055 232.486C176.055 234.671 176.43 236.247 177.389 238.096C178.032 239.334 178.728 240.246 179.86 241.333C181.979 243.368 184.219 244.403 187.135 244.694L188.308 244.812L189.488 244.693C192.655 244.377 195.445 242.912 197.487 240.495C199.24 238.419 200.19 236.263 200.473 233.715L200.604 232.538L200.477 231.275C200.311 229.635 200.038 228.668 199.33 227.217C198.667 225.857 197.945 224.857 196.828 223.751C194.203 221.152 190.938 219.99 187.118 220.294ZM232.751 220.252C227.313 220.531 222.629 224.549 221.433 229.959L221.254 230.765V232.486V234.206L221.438 235.038C222.018 237.668 223.433 239.994 225.578 241.842C227.553 243.545 229.633 244.43 232.281 244.695L233.449 244.812L234.617 244.695C237.144 244.442 239.089 243.654 241.022 242.098C243.072 240.449 244.668 238.004 245.354 235.464L245.635 234.421L245.633 232.432L245.631 230.443L245.351 229.399C244.316 225.53 241.113 222.094 237.372 220.838C236.148 220.427 234.187 220.178 232.751 220.252Z" fill="white"/>
</svg>
